<svg width="63" height="49" viewBox="0 0 63 49" fill="none" xmlns="http://www.w3.org/2000/svg">
<path d="M54.436 48.7964C57.1395 48.7964 59.1805 48.116 60.5591 46.7554C61.9377 45.3947 62.627 43.3805 62.627 40.7129V14.0723C62.627 11.4046 61.9377 9.39046 60.5591 8.02979C59.1805 6.66911 57.1395 5.98877 54.436 5.98877H47.4536C46.7733 5.98877 46.2317 5.93953 45.8289 5.84106C45.426 5.74259 45.059 5.57251 44.7278 5.33081C44.3966 5.08911 44.034 4.76237 43.6401 4.35059L41.5991 2.12158C40.9546 1.42334 40.2474 0.895182 39.4775 0.537109C38.7077 0.179036 37.6782 0 36.3892 0H26.0767C24.7876 0 23.7581 0.179036 22.9883 0.537109C22.2184 0.895182 21.5112 1.42334 20.8667 2.12158L18.8257 4.35059C18.2349 4.97721 17.7022 5.4069 17.2278 5.63965C16.7533 5.8724 16.0238 5.98877 15.0391 5.98877H8.19092C5.48747 5.98877 3.44645 6.66911 2.06787 8.02979C0.68929 9.39046 0 11.4046 0 14.0723V40.7129C0 43.3805 0.68929 45.3947 2.06787 46.7554C3.44645 48.116 5.48747 48.7964 8.19092 48.7964H54.436ZM31.3135 41.0352C28.7712 41.0352 26.4571 40.422 24.3713 39.1956C22.2856 37.9692 20.625 36.3131 19.3896 34.2273C18.1543 32.1415 17.5366 29.8185 17.5366 27.2583C17.5366 24.6981 18.1543 22.3751 19.3896 20.2893C20.625 18.2035 22.2856 16.543 24.3713 15.3076C26.4571 14.0723 28.7712 13.4546 31.3135 13.4546C33.8558 13.4546 36.1698 14.0723 38.2556 15.3076C40.3414 16.543 42.002 18.2035 43.2373 20.2893C44.4727 22.3751 45.0903 24.6981 45.0903 27.2583C45.0903 29.8185 44.4727 32.1415 43.2373 34.2273C42.002 36.3131 40.3414 37.9692 38.2556 39.1956C36.1698 40.422 33.8558 41.0352 31.3135 41.0352ZM50.1123 21.2427C49.1992 21.2427 48.4115 20.9204 47.749 20.2759C47.0866 19.6313 46.7554 18.8436 46.7554 17.9126C46.7554 17.0174 47.0866 16.2431 47.749 15.5896C48.4115 14.9361 49.1992 14.6094 50.1123 14.6094C51.0075 14.6094 51.7863 14.9361 52.4487 15.5896C53.1112 16.2431 53.4424 17.0174 53.4424 17.9126C53.4424 18.8436 53.1112 19.6269 52.4487 20.2625C51.7863 20.898 51.0075 21.2248 50.1123 21.2427ZM31.3135 36.8188C33.068 36.8188 34.6659 36.3847 36.1072 35.5164C37.5484 34.648 38.6987 33.4977 39.5581 32.0654C40.4175 30.6331 40.8472 29.0308 40.8472 27.2583C40.8472 25.4858 40.4175 23.879 39.5581 22.4377C38.6987 20.9965 37.5484 19.8507 36.1072 19.0002C34.6659 18.1498 33.068 17.7246 31.3135 17.7246C29.5589 17.7246 27.9565 18.1498 26.5063 19.0002C25.0562 19.8507 23.9058 20.9965 23.0554 22.4377C22.205 23.879 21.7798 25.4858 21.7798 27.2583C21.7798 29.0308 22.2095 30.6331 23.0688 32.0654C23.9282 33.4977 25.0785 34.648 26.5198 35.5164C27.961 36.3847 29.5589 36.8188 31.3135 36.8188Z" fill="#262626"/>
</svg>
