<svg width="37" height="67" viewBox="0 0 37 67" fill="none" xmlns="http://www.w3.org/2000/svg">
<path d="M18.9534 66.3813C19.8127 66.39 20.5647 66.0812 21.2092 65.4546L29.0779 57.5859C29.8119 56.8519 30.1745 55.9746 30.1655 54.9541C30.1566 53.9336 29.7851 53.0474 29.051 52.2954L26.0432 49.2339L30.8772 44.373C31.5933 43.639 31.9559 42.7572 31.9648 41.7278C31.9738 40.6983 31.6112 39.8166 30.8772 39.0825L26.7415 34.9468C29.9999 33.1027 32.502 30.7797 34.2476 27.9778C35.9932 25.1759 36.866 22.1188 36.866 18.8066C36.866 16.2822 36.3915 13.9145 35.4426 11.7034C34.4937 9.49227 33.1823 7.54972 31.5083 5.87573C29.8343 4.20174 27.8918 2.89478 25.6807 1.95483C23.4696 1.01489 21.1018 0.544922 18.5774 0.544922C16.0351 0.544922 13.6584 1.01489 11.4473 1.95483C9.23616 2.89478 7.29362 4.20174 5.61963 5.87573C3.94564 7.54972 2.63867 9.48779 1.69873 11.6899C0.758789 13.8921 0.288818 16.2643 0.288818 18.8066C0.288818 21.1341 0.696126 23.3497 1.51074 25.4534C2.32536 27.557 3.49357 29.4504 5.01538 31.1333C6.53719 32.8162 8.32755 34.1769 10.3865 35.2153V57.9082C10.3865 58.499 10.4984 59.0943 10.7222 59.6941C10.946 60.2939 11.2906 60.8086 11.7561 61.2383L16.7781 65.6157C17.3689 66.117 18.094 66.3721 18.9534 66.3813ZM18.5774 15.584C17.4137 15.584 16.4111 15.1632 15.5696 14.3218C14.7281 13.4803 14.3074 12.4777 14.3074 11.314C14.3074 10.1144 14.7236 9.10286 15.5562 8.2793C16.3887 7.45573 17.3958 7.04395 18.5774 7.04395C19.7411 7.04395 20.7437 7.46021 21.5852 8.29272C22.4267 9.12524 22.8474 10.1323 22.8474 11.314C22.8474 12.4777 22.4267 13.4803 21.5852 14.3218C20.7437 15.1632 19.7411 15.584 18.5774 15.584Z" fill="#262626"/>
</svg>
