<svg width="57" height="57" viewBox="0 0 57 57" fill="none" xmlns="http://www.w3.org/2000/svg">
<path d="M28.5776 56.4263C32.3911 56.4263 35.9763 55.7056 39.3333 54.2644C42.6902 52.8232 45.6398 50.8314 48.1821 48.2891C50.7244 45.7467 52.7162 42.7971 54.1575 39.4402C55.5987 36.0833 56.3193 32.498 56.3193 28.6846C56.3193 24.8711 55.5987 21.2859 54.1575 17.929C52.7162 14.572 50.7244 11.6224 48.1821 9.08008C45.6398 6.53776 42.6902 4.54598 39.3333 3.10474C35.9763 1.66349 32.3911 0.942871 28.5776 0.942871C24.7463 0.942871 21.1566 1.66349 17.8086 3.10474C14.4606 4.54598 11.5155 6.53776 8.97314 9.08008C6.43083 11.6224 4.43905 14.572 2.9978 17.929C1.55656 21.2859 0.835938 24.8711 0.835938 28.6846C0.835938 32.498 1.55656 36.0833 2.9978 39.4402C4.43905 42.7971 6.43083 45.7467 8.97314 48.2891C11.5155 50.8314 14.4606 52.8232 17.8086 54.2644C21.1566 55.7056 24.7463 56.4263 28.5776 56.4263ZM25.8115 41.7632C25.1133 41.7632 24.4867 41.6021 23.9316 41.2798C23.3766 40.9575 22.8664 40.5368 22.4009 40.0176L16.8149 33.5723C16.439 33.1426 16.1749 32.7308 16.0227 32.3369C15.8705 31.943 15.7944 31.5223 15.7944 31.0747C15.7944 30.0721 16.1525 29.2351 16.8687 28.5637C17.5848 27.8923 18.4263 27.5566 19.3931 27.5566C19.9481 27.5566 20.436 27.6685 20.8567 27.8923C21.2774 28.1161 21.6758 28.4339 22.0518 28.8457L25.8115 33.0889L34.8081 18.9897C35.6675 17.6291 36.7148 16.9487 37.9502 16.9487C38.917 16.9487 39.7719 17.2755 40.5149 17.929C41.2579 18.5824 41.6294 19.4015 41.6294 20.3862C41.6294 20.7264 41.5667 21.0889 41.4414 21.4739C41.3161 21.8588 41.1191 22.2482 40.8506 22.6421L29.1416 39.937C28.7477 40.492 28.2643 40.9351 27.6914 41.2664C27.1185 41.5976 26.4919 41.7632 25.8115 41.7632Z" fill="white"/>
</svg>
