<svg width="42" height="42" viewBox="0 0 42 42" fill="none" xmlns="http://www.w3.org/2000/svg">
<path d="M20.8999 41.1934C23.6753 41.1934 26.2798 40.6636 28.7134 39.604C31.147 38.5444 33.2935 37.0884 35.1528 35.2358C37.0122 33.3833 38.4683 31.2402 39.521 28.8066C40.5737 26.373 41.1001 23.7686 41.1001 20.9932C41.1001 18.2314 40.5703 15.6338 39.5107 13.2002C38.4512 10.7666 36.9917 8.62012 35.1323 6.76074C33.2729 4.90137 31.1265 3.44531 28.6929 2.39258C26.2593 1.33984 23.6616 0.813477 20.8999 0.813477C18.1382 0.813477 15.5405 1.33984 13.1069 2.39258C10.6733 3.44531 8.52686 4.90137 6.66748 6.76074C4.80811 8.62012 3.35205 10.7666 2.29932 13.2002C1.24658 15.6338 0.720215 18.2314 0.720215 20.9932C0.720215 23.7686 1.25 26.373 2.30957 28.8066C3.36914 31.2402 4.8252 33.3833 6.67773 35.2358C8.53027 37.0884 10.6733 38.5444 13.1069 39.604C15.5405 40.6636 18.1382 41.1934 20.8999 41.1934ZM20.8999 36.8662C18.7124 36.8662 16.6582 36.4561 14.7373 35.6357C12.8164 34.8154 11.1313 33.6807 9.68213 32.2314C8.23291 30.7822 7.10156 29.0972 6.28809 27.1763C5.47461 25.2554 5.06787 23.1943 5.06787 20.9932C5.06787 18.8057 5.47461 16.7515 6.28809 14.8306C7.10156 12.9097 8.23291 11.2246 9.68213 9.77539C11.1313 8.32617 12.813 7.19141 14.7271 6.37109C16.6411 5.55078 18.6987 5.14062 20.8999 5.14062C23.1011 5.14062 25.1587 5.55078 27.0728 6.37109C28.9868 7.19141 30.6719 8.32617 32.1279 9.77539C33.584 11.2246 34.7222 12.9097 35.5425 14.8306C36.3628 16.7515 36.7729 18.8057 36.7729 20.9932C36.7866 23.1943 36.3799 25.2554 35.5527 27.1763C34.7256 29.0972 33.5908 30.7822 32.1484 32.2314C30.7061 33.6807 29.0244 34.8154 27.1035 35.6357C25.1826 36.4561 23.1147 36.8662 20.8999 36.8662ZM20.8999 30.8369C21.4468 30.8369 21.8979 30.6694 22.2534 30.3345C22.6089 29.9995 22.7866 29.5723 22.7866 29.0527V20.1523L22.6021 16.2559L24.2632 18.3682L26.355 20.6035C26.6831 20.9453 27.1001 21.1162 27.606 21.1162C28.0981 21.1162 28.5049 20.9624 28.8262 20.6548C29.1475 20.3472 29.3081 19.9541 29.3081 19.4756C29.3081 18.9971 29.1372 18.5801 28.7954 18.2246L22.4175 11.7236C21.98 11.2588 21.4741 11.0264 20.8999 11.0264C20.3667 11.0264 19.8745 11.2588 19.4233 11.7236L13.0454 18.2246C12.7173 18.5801 12.5532 18.9971 12.5532 19.4756C12.5532 19.9541 12.7104 20.3472 13.0249 20.6548C13.3394 20.9624 13.7427 21.1162 14.2349 21.1162C14.7407 21.1162 15.1577 20.9453 15.4858 20.6035L17.5981 18.3477L19.2388 16.2559L19.0542 20.1523V29.0527C19.0542 29.5723 19.2319 29.9995 19.5874 30.3345C19.9429 30.6694 20.3804 30.8369 20.8999 30.8369Z" fill="#262626"/>
</svg>
