<svg width="62" height="51" viewBox="0 0 62 51" fill="none" xmlns="http://www.w3.org/2000/svg">
<path d="M51.4014 50.354C54.5345 50.354 56.9784 49.4767 58.7329 47.7222C60.4875 45.9676 61.3647 43.5238 61.3647 40.3906V9.93652C61.3647 6.80339 60.4875 4.36401 58.7329 2.61841C56.9784 0.872803 54.5345 0 51.4014 0H9.96338C6.83024 0 4.38639 0.872803 2.63184 2.61841C0.877279 4.36401 0 6.80339 0 9.93652V40.3906C0 43.5238 0.877279 45.9676 2.63184 47.7222C4.38639 49.4767 6.83024 50.354 9.96338 50.354H51.4014ZM30.6689 30.5615C29.0755 30.5436 27.6477 30.1274 26.3855 29.3127C25.1233 28.4981 24.1252 27.406 23.3911 26.0364C22.6571 24.6667 22.29 23.1315 22.29 21.4307C22.29 19.8372 22.6615 18.3602 23.4045 16.9995C24.1475 15.6388 25.1546 14.5378 26.4258 13.6963C27.6969 12.8548 29.1113 12.4341 30.6689 12.4341C32.2445 12.4341 33.6678 12.8548 34.939 13.6963C36.2101 14.5378 37.2172 15.6388 37.9602 16.9995C38.7032 18.3602 39.0747 19.8372 39.0747 21.4307C39.0747 23.1315 38.7077 24.6667 37.9736 26.0364C37.2396 27.406 36.2415 28.5026 34.9792 29.3262C33.717 30.1497 32.2803 30.5615 30.6689 30.5615ZM44.5264 41.3843H16.8384C17.465 40.3101 18.2483 39.3298 19.1882 38.4436C20.1282 37.5574 21.2024 36.7965 22.4109 36.1609C23.6194 35.5253 24.9219 35.0419 26.3184 34.7107C27.7148 34.3795 29.165 34.2139 30.6689 34.2139C32.1908 34.2139 33.6544 34.3795 35.0598 34.7107C36.4653 35.0419 37.7677 35.5253 38.9673 36.1609C40.1668 36.7965 41.241 37.5574 42.1899 38.4436C43.1388 39.3298 43.9176 40.3101 44.5264 41.3843Z" fill="#262626"/>
</svg>
